<?xml version="1.0" encoding="UTF-8" standalone="no"?>
<!DOCTYPE svg PUBLIC "-//W3C//DTD SVG 1.1//EN"
 "http://www.w3.org/Graphics/SVG/1.1/DTD/svg11.dtd">
<!-- Generated by graphviz version 2.43.0 (0)
 -->
<!-- Title: TraderDeckHighLevel Pages: 1 -->
<svg width="574pt" height="646pt"
 viewBox="0.00 0.00 574.00 646.00" xmlns="http://www.w3.org/2000/svg" xmlns:xlink="http://www.w3.org/1999/xlink">
<g id="graph0" class="graph" transform="scale(1 1) rotate(0) translate(4 642)">
<title>TraderDeckHighLevel</title>
<polygon fill="white" stroke="transparent" points="-4,4 -4,-642 570,-642 570,4 -4,4"/>
<g id="clust1" class="cluster">
<title>cluster_edge</title>
<path fill="none" stroke="#93c5fd" d="M427,-452C427,-452 523,-452 523,-452 529,-452 535,-458 535,-464 535,-464 535,-618 535,-618 535,-624 529,-630 523,-630 523,-630 427,-630 427,-630 421,-630 415,-624 415,-618 415,-618 415,-464 415,-464 415,-458 421,-452 427,-452"/>
<text text-anchor="middle" x="475" y="-616.4" font-family="Inter" font-size="12.00">Edge &amp; Delivery</text>
</g>
<g id="clust2" class="cluster">
<title>cluster_app</title>
<path fill="none" stroke="#34d399" d="M289,-226C289,-226 481,-226 481,-226 487,-226 493,-232 493,-238 493,-238 493,-295 493,-295 493,-301 487,-307 481,-307 481,-307 289,-307 289,-307 283,-307 277,-301 277,-295 277,-295 277,-238 277,-238 277,-232 283,-226 289,-226"/>
<text text-anchor="middle" x="385" y="-293.4" font-family="Inter" font-size="12.00">Application</text>
</g>
<g id="clust3" class="cluster">
<title>cluster_data</title>
<path fill="none" stroke="#fbbf24" d="M65,-8C65,-8 465,-8 465,-8 471,-8 477,-14 477,-20 477,-20 477,-174 477,-174 477,-180 471,-186 465,-186 465,-186 65,-186 65,-186 59,-186 53,-180 53,-174 53,-174 53,-20 53,-20 53,-14 59,-8 65,-8"/>
<text text-anchor="middle" x="265" y="-172.4" font-family="Inter" font-size="12.00">Data &amp; AI</text>
</g>
<!-- browser -->
<g id="node1" class="node">
<title>browser</title>
<path fill="#f9fafb" stroke="#1f2937" d="M497,-601C497,-601 453,-601 453,-601 447,-601 441,-595 441,-589 441,-589 441,-577 441,-577 441,-571 447,-565 453,-565 453,-565 497,-565 497,-565 503,-565 509,-571 509,-577 509,-577 509,-589 509,-589 509,-595 503,-601 497,-601"/>
<text text-anchor="middle" x="475" y="-586.2" font-family="Inter" font-size="11.00">Users</text>
<text text-anchor="middle" x="475" y="-574.2" font-family="Inter" font-size="11.00">Browsers</text>
</g>
<!-- cloudfront -->
<g id="node2" class="node">
<title>cloudfront</title>
<path fill="#f9fafb" stroke="#1f2937" d="M515,-496C515,-496 435,-496 435,-496 429,-496 423,-490 423,-484 423,-484 423,-472 423,-472 423,-466 429,-460 435,-460 435,-460 515,-460 515,-460 521,-460 527,-466 527,-472 527,-472 527,-484 527,-484 527,-490 521,-496 515,-496"/>
<text text-anchor="middle" x="475" y="-481.2" font-family="Inter" font-size="11.00">AWS CloudFront</text>
<text text-anchor="middle" x="475" y="-469.2" font-family="Inter" font-size="11.00">CDN</text>
</g>
<!-- browser&#45;&gt;cloudfront -->
<g id="edge1" class="edge">
<title>browser&#45;&gt;cloudfront</title>
<path fill="none" stroke="#374151" d="M475,-564.99C475,-548.74 475,-524.01 475,-505.23"/>
<polygon fill="#374151" stroke="#374151" points="478.15,-505.03 475,-496.03 471.85,-505.03 478.15,-505.03"/>
<text text-anchor="middle" x="491" y="-528" font-family="Inter" font-size="10.00">HTTPS</text>
</g>
<!-- alb -->
<g id="node3" class="node">
<title>alb</title>
<path fill="#f9fafb" stroke="#1f2937" d="M406,-391C406,-391 364,-391 364,-391 358,-391 352,-385 352,-379 352,-379 352,-367 352,-367 352,-361 358,-355 364,-355 364,-355 406,-355 406,-355 412,-355 418,-361 418,-367 418,-367 418,-379 418,-379 418,-385 412,-391 406,-391"/>
<text text-anchor="middle" x="385" y="-370.2" font-family="Inter" font-size="11.00">AWS ALB</text>
</g>
<!-- cloudfront&#45;&gt;alb -->
<g id="edge3" class="edge">
<title>cloudfront&#45;&gt;alb</title>
<path fill="none" stroke="#374151" d="M451.81,-459.82C441.71,-451.71 430.12,-441.51 421,-431 412.59,-421.3 404.78,-409.45 398.6,-399.07"/>
<polygon fill="#374151" stroke="#374151" points="401.24,-397.35 394.01,-391.13 395.79,-400.5 401.24,-397.35"/>
<text text-anchor="middle" x="451.5" y="-423" font-family="Inter" font-size="10.00">API requests</text>
</g>
<!-- s3_frontend -->
<g id="node4" class="node">
<title>s3_frontend</title>
<path fill="#f9fafb" stroke="#1f2937" d="M554,-391C554,-391 480,-391 480,-391 474,-391 468,-385 468,-379 468,-379 468,-367 468,-367 468,-361 474,-355 480,-355 480,-355 554,-355 554,-355 560,-355 566,-361 566,-367 566,-367 566,-379 566,-379 566,-385 560,-391 554,-391"/>
<text text-anchor="middle" x="517" y="-376.2" font-family="Inter" font-size="11.00">Amazon S3</text>
<text text-anchor="middle" x="517" y="-364.2" font-family="Inter" font-size="11.00">Frontend (SPA)</text>
</g>
<!-- cloudfront&#45;&gt;s3_frontend -->
<g id="edge2" class="edge">
<title>cloudfront&#45;&gt;s3_frontend</title>
<path fill="none" stroke="#374151" d="M481.94,-459.99C488.66,-443.52 498.93,-418.33 506.62,-399.46"/>
<polygon fill="#374151" stroke="#374151" points="509.58,-400.56 510.06,-391.03 503.74,-398.18 509.58,-400.56"/>
<text text-anchor="middle" x="528.5" y="-423" font-family="Inter" font-size="10.00">Static assets</text>
</g>
<!-- ec2 -->
<g id="node5" class="node">
<title>ec2</title>
<path fill="#f9fafb" stroke="#1f2937" d="M473,-278C473,-278 297,-278 297,-278 291,-278 285,-272 285,-266 285,-266 285,-246 285,-246 285,-240 291,-234 297,-234 297,-234 473,-234 473,-234 479,-234 485,-240 485,-246 485,-246 485,-266 485,-266 485,-272 479,-278 473,-278"/>
<text text-anchor="middle" x="385" y="-265.2" font-family="Inter" font-size="11.00">EC2</text>
<text text-anchor="middle" x="385" y="-253.2" font-family="Inter" font-size="11.00">Spring Boot Backend</text>
<text text-anchor="middle" x="385" y="-241.2" font-family="Inter" font-size="11.00">REST APIs + Async Orchestration</text>
</g>
<!-- alb&#45;&gt;ec2 -->
<g id="edge4" class="edge">
<title>alb&#45;&gt;ec2</title>
<path fill="none" stroke="#374151" d="M385,-354.53C385,-336.69 385,-308.64 385,-287.19"/>
<polygon fill="#374151" stroke="#374151" points="388.15,-287.15 385,-278.15 381.85,-287.15 388.15,-287.15"/>
<text text-anchor="middle" x="402.5" y="-318" font-family="Inter" font-size="10.00">HTTP/S</text>
</g>
<!-- rds -->
<g id="node6" class="node">
<title>rds</title>
<path fill="#f9fafb" stroke="#1f2937" d="M151.5,-52C151.5,-52 88.5,-52 88.5,-52 82.5,-52 76.5,-46 76.5,-40 76.5,-40 76.5,-28 76.5,-28 76.5,-22 82.5,-16 88.5,-16 88.5,-16 151.5,-16 151.5,-16 157.5,-16 163.5,-22 163.5,-28 163.5,-28 163.5,-40 163.5,-40 163.5,-46 157.5,-52 151.5,-52"/>
<text text-anchor="middle" x="120" y="-37.2" font-family="Inter" font-size="11.00">Amazon RDS</text>
<text text-anchor="middle" x="120" y="-25.2" font-family="Inter" font-size="11.00">PostgreSQL</text>
</g>
<!-- ec2&#45;&gt;rds -->
<g id="edge5" class="edge">
<title>ec2&#45;&gt;rds</title>
<path fill="none" stroke="#374151" d="M284.86,-250.51C186.43,-243.75 46.12,-227.01 12,-186 -6.47,-163.79 -0.54,-147.02 12,-121 25.47,-93.07 52.91,-71.4 76.76,-56.8"/>
<polygon fill="#374151" stroke="#374151" points="78.53,-59.41 84.68,-52.13 75.33,-53.99 78.53,-59.41"/>
<text text-anchor="middle" x="24.5" y="-136.5" font-family="Inter" font-size="10.00">JDBC</text>
</g>
<!-- s3_data -->
<g id="node7" class="node">
<title>s3_data</title>
<path fill="#f9fafb" stroke="#1f2937" d="M308.5,-52C308.5,-52 233.5,-52 233.5,-52 227.5,-52 221.5,-46 221.5,-40 221.5,-40 221.5,-28 221.5,-28 221.5,-22 227.5,-16 233.5,-16 233.5,-16 308.5,-16 308.5,-16 314.5,-16 320.5,-22 320.5,-28 320.5,-28 320.5,-40 320.5,-40 320.5,-46 314.5,-52 308.5,-52"/>
<text text-anchor="middle" x="271" y="-37.2" font-family="Inter" font-size="11.00">Amazon S3</text>
<text text-anchor="middle" x="271" y="-25.2" font-family="Inter" font-size="11.00">Assets/Exports</text>
</g>
<!-- ec2&#45;&gt;s3_data -->
<g id="edge9" class="edge">
<title>ec2&#45;&gt;s3_data</title>
<path fill="none" stroke="#374151" d="M446.11,-233.95C466.54,-223.25 486.32,-207.78 495,-186 505.7,-159.16 511.37,-144.81 495,-121 458.09,-67.29 382.64,-47.11 329.53,-39.53"/>
<polygon fill="#374151" stroke="#374151" points="329.89,-36.4 320.55,-38.34 329.06,-42.65 329.89,-36.4"/>
<text text-anchor="middle" x="532.5" y="-136.5" font-family="Inter" font-size="10.00">Read/Write</text>
</g>
<!-- bedrock -->
<g id="node8" class="node">
<title>bedrock</title>
<path fill="#f9fafb" stroke="#1f2937" d="M457.5,-157C457.5,-157 312.5,-157 312.5,-157 306.5,-157 300.5,-151 300.5,-145 300.5,-145 300.5,-133 300.5,-133 300.5,-127 306.5,-121 312.5,-121 312.5,-121 457.5,-121 457.5,-121 463.5,-121 469.5,-127 469.5,-133 469.5,-133 469.5,-145 469.5,-145 469.5,-151 463.5,-157 457.5,-157"/>
<text text-anchor="middle" x="385" y="-142.2" font-family="Inter" font-size="11.00">AWS Bedrock</text>
<text text-anchor="middle" x="385" y="-130.2" font-family="Inter" font-size="11.00">Workflow (agentic analysis)</text>
</g>
<!-- ec2&#45;&gt;bedrock -->
<g id="edge6" class="edge">
<title>ec2&#45;&gt;bedrock</title>
<path fill="none" stroke="#374151" d="M385,-233.91C385,-214.87 385,-186.8 385,-166.31"/>
<polygon fill="#374151" stroke="#374151" points="388.15,-166.21 385,-157.21 381.85,-166.21 388.15,-166.21"/>
<text text-anchor="middle" x="425" y="-197" font-family="Inter" font-size="10.00">Invoke workflow</text>
</g>
<!-- lambda_jobs -->
<g id="node9" class="node">
<title>lambda_jobs</title>
<path fill="#f9fafb" stroke="#1f2937" d="M238.5,-157C238.5,-157 73.5,-157 73.5,-157 67.5,-157 61.5,-151 61.5,-145 61.5,-145 61.5,-133 61.5,-133 61.5,-127 67.5,-121 73.5,-121 73.5,-121 238.5,-121 238.5,-121 244.5,-121 250.5,-127 250.5,-133 250.5,-133 250.5,-145 250.5,-145 250.5,-151 244.5,-157 238.5,-157"/>
<text text-anchor="middle" x="156" y="-142.2" font-family="Inter" font-size="11.00">AWS Lambda</text>
<text text-anchor="middle" x="156" y="-130.2" font-family="Inter" font-size="11.00">Background jobs &amp; integrations</text>
</g>
<!-- lambda_jobs&#45;&gt;rds -->
<g id="edge7" class="edge">
<title>lambda_jobs&#45;&gt;rds</title>
<path fill="none" stroke="#374151" d="M150.06,-120.99C144.33,-104.59 135.58,-79.55 128.99,-60.72"/>
<polygon fill="#374151" stroke="#374151" points="131.9,-59.49 125.96,-52.03 125.95,-61.57 131.9,-59.49"/>
<text text-anchor="middle" x="166.5" y="-84" font-family="Inter" font-size="10.00">Read/Write</text>
</g>
<!-- lambda_jobs&#45;&gt;s3_data -->
<g id="edge8" class="edge">
<title>lambda_jobs&#45;&gt;s3_data</title>
<path fill="none" stroke="#374151" d="M174.99,-120.99C194.14,-103.85 223.82,-77.26 245.11,-58.19"/>
<polygon fill="#374151" stroke="#374151" points="247.38,-60.38 251.99,-52.03 243.18,-55.69 247.38,-60.38"/>
<text text-anchor="middle" x="243.5" y="-84" font-family="Inter" font-size="10.00">Read/Write</text>
</g>
</g>
</svg>
